<svg id="visual" viewBox="0 0 960 150" width="960" height="150" xmlns="http://www.w3.org/2000/svg" xmlns:xlink="http://www.w3.org/1999/xlink" version="1.1"><rect x="0" y="0" width="960" height="150" fill="#233134"></rect><path d="M0 91L22.8 93.2C45.7 95.3 91.3 99.7 137 99.2C182.7 98.7 228.3 93.3 274 94C319.7 94.7 365.3 101.3 411.2 104C457 106.7 503 105.3 548.8 102.5C594.7 99.7 640.3 95.3 686 93.5C731.7 91.7 777.3 92.3 823 93C868.7 93.7 914.3 94.3 937.2 94.7L960 95L960 151L937.2 151C914.3 151 868.7 151 823 151C777.3 151 731.7 151 686 151C640.3 151 594.7 151 548.8 151C503 151 457 151 411.2 151C365.3 151 319.7 151 274 151C228.3 151 182.7 151 137 151C91.3 151 45.7 151 22.8 151L0 151Z" fill="#000000"></path><path d="M0 114L22.8 112C45.7 110 91.3 106 137 106.7C182.7 107.3 228.3 112.7 274 115.2C319.7 117.7 365.3 117.3 411.2 116.2C457 115 503 113 548.8 111.2C594.7 109.3 640.3 107.7 686 106.3C731.7 105 777.3 104 823 105.2C868.7 106.3 914.3 109.7 937.2 111.3L960 113L960 151L937.2 151C914.3 151 868.7 151 823 151C777.3 151 731.7 151 686 151C640.3 151 594.7 151 548.8 151C503 151 457 151 411.2 151C365.3 151 319.7 151 274 151C228.3 151 182.7 151 137 151C91.3 151 45.7 151 22.8 151L0 151Z" fill="#000618"></path><path d="M0 117L22.8 117.2C45.7 117.3 91.3 117.7 137 116.2C182.7 114.7 228.3 111.3 274 110.2C319.7 109 365.3 110 411.2 112.7C457 115.3 503 119.7 548.8 120C594.7 120.3 640.3 116.7 686 116C731.7 115.3 777.3 117.7 823 118.5C868.7 119.3 914.3 118.7 937.2 118.3L960 118L960 151L937.2 151C914.3 151 868.7 151 823 151C777.3 151 731.7 151 686 151C640.3 151 594.7 151 548.8 151C503 151 457 151 411.2 151C365.3 151 319.7 151 274 151C228.3 151 182.7 151 137 151C91.3 151 45.7 151 22.8 151L0 151Z" fill="#000b1b"></path><path d="M0 127L22.8 128.3C45.7 129.7 91.3 132.3 137 132.8C182.7 133.3 228.3 131.7 274 129.3C319.7 127 365.3 124 411.2 123.2C457 122.3 503 123.7 548.8 123.8C594.7 124 640.3 123 686 123.7C731.7 124.3 777.3 126.7 823 127.8C868.7 129 914.3 129 937.2 129L960 129L960 151L937.2 151C914.3 151 868.7 151 823 151C777.3 151 731.7 151 686 151C640.3 151 594.7 151 548.8 151C503 151 457 151 411.2 151C365.3 151 319.7 151 274 151C228.3 151 182.7 151 137 151C91.3 151 45.7 151 22.8 151L0 151Z" fill="#000f1e"></path><path d="M0 136L22.8 136.8C45.7 137.7 91.3 139.3 137 139.5C182.7 139.7 228.3 138.3 274 138.5C319.7 138.7 365.3 140.3 411.2 140.7C457 141 503 140 548.8 139C594.7 138 640.3 137 686 137.3C731.7 137.7 777.3 139.3 823 140.3C868.7 141.3 914.3 141.7 937.2 141.8L960 142L960 151L937.2 151C914.3 151 868.7 151 823 151C777.3 151 731.7 151 686 151C640.3 151 594.7 151 548.8 151C503 151 457 151 411.2 151C365.3 151 319.7 151 274 151C228.3 151 182.7 151 137 151C91.3 151 45.7 151 22.8 151L0 151Z" fill="#001220"></path></svg>