<svg id="visual" viewBox="0 0 960 300" width="960" height="300" xmlns="http://www.w3.org/2000/svg" xmlns:xlink="http://www.w3.org/1999/xlink" version="1.1"><rect x="0" y="0" width="960" height="300" fill="#001220"></rect><path d="M0 99L137 119L274 102L411 149L549 129L686 109L823 135L960 114L960 301L823 301L686 301L549 301L411 301L274 301L137 301L0 301Z" fill="#001220"></path><path d="M0 165L137 142L274 126L411 170L549 124L686 151L823 136L960 126L960 301L823 301L686 301L549 301L411 301L274 301L137 301L0 301Z" fill="#0c2635"></path><path d="M0 190L137 168L274 156L411 171L549 183L686 183L823 197L960 160L960 301L823 301L686 301L549 301L411 301L274 301L137 301L0 301Z" fill="#183c4a"></path><path d="M0 203L137 218L274 184L411 196L549 225L686 212L823 184L960 224L960 301L823 301L686 301L549 301L411 301L274 301L137 301L0 301Z" fill="#26525e"></path><path d="M0 225L137 226L274 244L411 231L549 213L686 214L823 226L960 213L960 301L823 301L686 301L549 301L411 301L274 301L137 301L0 301Z" fill="#366a73"></path><path d="M0 250L137 259L274 267L411 271L549 270L686 274L823 252L960 246L960 301L823 301L686 301L549 301L411 301L274 301L137 301L0 301Z" fill="#488286"></path></svg>