<svg id="visual" viewBox="0 0 960 300" width="960" height="300" xmlns="http://www.w3.org/2000/svg" xmlns:xlink="http://www.w3.org/1999/xlink" version="1.1"><path d="M0 58L14.5 55C29 52 58 46 87.2 44C116.3 42 145.7 44 174.8 45.5C204 47 233 48 262 52.5C291 57 320 65 349 68C378 71 407 69 436.2 69.5C465.3 70 494.7 73 523.8 73.5C553 74 582 72 611 66.5C640 61 669 52 698 48.5C727 45 756 47 785.2 47.5C814.3 48 843.7 47 872.8 50C902 53 931 60 945.5 63.5L960 67L960 0L945.5 0C931 0 902 0 872.8 0C843.7 0 814.3 0 785.2 0C756 0 727 0 698 0C669 0 640 0 611 0C582 0 553 0 523.8 0C494.7 0 465.3 0 436.2 0C407 0 378 0 349 0C320 0 291 0 262 0C233 0 204 0 174.8 0C145.7 0 116.3 0 87.2 0C58 0 29 0 14.5 0L0 0Z" fill="#000000"></path><path d="M0 88L14.5 86.5C29 85 58 82 87.2 81.5C116.3 81 145.7 83 174.8 85C204 87 233 89 262 91.5C291 94 320 97 349 97C378 97 407 94 436.2 92.5C465.3 91 494.7 91 523.8 91C553 91 582 91 611 91C640 91 669 91 698 87C727 83 756 75 785.2 75C814.3 75 843.7 83 872.8 90C902 97 931 103 945.5 106L960 109L960 65L945.5 61.5C931 58 902 51 872.8 48C843.7 45 814.3 46 785.2 45.5C756 45 727 43 698 46.5C669 50 640 59 611 64.5C582 70 553 72 523.8 71.5C494.7 71 465.3 68 436.2 67.5C407 67 378 69 349 66C320 63 291 55 262 50.5C233 46 204 45 174.8 43.5C145.7 42 116.3 40 87.2 42C58 44 29 50 14.5 53L0 56Z" fill="#001114"></path><path d="M0 187L14.5 185C29 183 58 179 87.2 174C116.3 169 145.7 163 174.8 159C204 155 233 153 262 160C291 167 320 183 349 189.5C378 196 407 193 436.2 183C465.3 173 494.7 156 523.8 147C553 138 582 137 611 143.5C640 150 669 164 698 159.5C727 155 756 132 785.2 133.5C814.3 135 843.7 161 872.8 175C902 189 931 191 945.5 192L960 193L960 107L945.5 104C931 101 902 95 872.8 88C843.7 81 814.3 73 785.2 73C756 73 727 81 698 85C669 89 640 89 611 89C582 89 553 89 523.8 89C494.7 89 465.3 89 436.2 90.5C407 92 378 95 349 95C320 95 291 92 262 89.5C233 87 204 85 174.8 83C145.7 81 116.3 79 87.2 79.5C58 80 29 83 14.5 84.5L0 86Z" fill="#0a191c"></path><path d="M0 226L14.5 229.5C29 233 58 240 87.2 238C116.3 236 145.7 225 174.8 223.5C204 222 233 230 262 235.5C291 241 320 244 349 245.5C378 247 407 247 436.2 244C465.3 241 494.7 235 523.8 237.5C553 240 582 251 611 250C640 249 669 236 698 233C727 230 756 237 785.2 240.5C814.3 244 843.7 244 872.8 244C902 244 931 244 945.5 244L960 244L960 191L945.5 190C931 189 902 187 872.8 173C843.7 159 814.3 133 785.2 131.5C756 130 727 153 698 157.5C669 162 640 148 611 141.5C582 135 553 136 523.8 145C494.7 154 465.3 171 436.2 181C407 191 378 194 349 187.5C320 181 291 165 262 158C233 151 204 153 174.8 157C145.7 161 116.3 167 87.2 172C58 177 29 181 14.5 183L0 185Z" fill="#132124"></path><path d="M0 271L14.5 273.5C29 276 58 281 87.2 280.5C116.3 280 145.7 274 174.8 273C204 272 233 276 262 279C291 282 320 284 349 284.5C378 285 407 284 436.2 284C465.3 284 494.7 285 523.8 285C553 285 582 284 611 282C640 280 669 277 698 275.5C727 274 756 274 785.2 273C814.3 272 843.7 270 872.8 268C902 266 931 264 945.5 263L960 262L960 242L945.5 242C931 242 902 242 872.8 242C843.7 242 814.3 242 785.2 238.5C756 235 727 228 698 231C669 234 640 247 611 248C582 249 553 238 523.8 235.5C494.7 233 465.3 239 436.2 242C407 245 378 245 349 243.5C320 242 291 239 262 233.5C233 228 204 220 174.8 221.5C145.7 223 116.3 234 87.2 236C58 238 29 231 14.5 227.5L0 224Z" fill="#1b292c"></path><path d="M0 301L14.5 301C29 301 58 301 87.2 301C116.3 301 145.7 301 174.8 301C204 301 233 301 262 301C291 301 320 301 349 301C378 301 407 301 436.2 301C465.3 301 494.7 301 523.8 301C553 301 582 301 611 301C640 301 669 301 698 301C727 301 756 301 785.2 301C814.3 301 843.7 301 872.8 301C902 301 931 301 945.5 301L960 301L960 260L945.5 261C931 262 902 264 872.8 266C843.7 268 814.3 270 785.2 271C756 272 727 272 698 273.5C669 275 640 278 611 280C582 282 553 283 523.8 283C494.7 283 465.3 282 436.2 282C407 282 378 283 349 282.5C320 282 291 280 262 277C233 274 204 270 174.8 271C145.7 272 116.3 278 87.2 278.5C58 279 29 274 14.5 271.5L0 269Z" fill="#233134"></path></svg>