<svg id="visual" viewBox="0 0 960 300" width="960" height="300" xmlns="http://www.w3.org/2000/svg" xmlns:xlink="http://www.w3.org/1999/xlink" version="1.1"><path d="M0 91L14.5 93.5C29 96 58 101 87.2 96C116.3 91 145.7 76 174.8 65.5C204 55 233 49 262 60.5C291 72 320 101 349 105.5C378 110 407 90 436.2 81C465.3 72 494.7 74 523.8 71C553 68 582 60 611 63.5C640 67 669 82 698 81C727 80 756 63 785.2 64.5C814.3 66 843.7 86 872.8 94.5C902 103 931 100 945.5 98.5L960 97L960 0L945.5 0C931 0 902 0 872.8 0C843.7 0 814.3 0 785.2 0C756 0 727 0 698 0C669 0 640 0 611 0C582 0 553 0 523.8 0C494.7 0 465.3 0 436.2 0C407 0 378 0 349 0C320 0 291 0 262 0C233 0 204 0 174.8 0C145.7 0 116.3 0 87.2 0C58 0 29 0 14.5 0L0 0Z" fill="#488286"></path><path d="M0 133L14.5 134C29 135 58 137 87.2 131C116.3 125 145.7 111 174.8 97.5C204 84 233 71 262 83C291 95 320 132 349 140.5C378 149 407 129 436.2 118.5C465.3 108 494.7 107 523.8 100C553 93 582 80 611 81.5C640 83 669 99 698 101C727 103 756 91 785.2 95C814.3 99 843.7 119 872.8 125.5C902 132 931 125 945.5 121.5L960 118L960 95L945.5 96.5C931 98 902 101 872.8 92.5C843.7 84 814.3 64 785.2 62.5C756 61 727 78 698 79C669 80 640 65 611 61.5C582 58 553 66 523.8 69C494.7 72 465.3 70 436.2 79C407 88 378 108 349 103.5C320 99 291 70 262 58.5C233 47 204 53 174.8 63.5C145.7 74 116.3 89 87.2 94C58 99 29 94 14.5 91.5L0 89Z" fill="#2e686c"></path><path d="M0 211L14.5 206.5C29 202 58 193 87.2 184.5C116.3 176 145.7 168 174.8 169.5C204 171 233 182 262 192C291 202 320 211 349 210.5C378 210 407 200 436.2 195C465.3 190 494.7 190 523.8 191.5C553 193 582 196 611 190.5C640 185 669 171 698 163C727 155 756 153 785.2 157C814.3 161 843.7 171 872.8 174C902 177 931 173 945.5 171L960 169L960 116L945.5 119.5C931 123 902 130 872.8 123.5C843.7 117 814.3 97 785.2 93C756 89 727 101 698 99C669 97 640 81 611 79.5C582 78 553 91 523.8 98C494.7 105 465.3 106 436.2 116.5C407 127 378 147 349 138.5C320 130 291 93 262 81C233 69 204 82 174.8 95.5C145.7 109 116.3 123 87.2 129C58 135 29 133 14.5 132L0 131Z" fill="#125054"></path><path d="M0 259L14.5 258.5C29 258 58 257 87.2 252C116.3 247 145.7 238 174.8 231.5C204 225 233 221 262 223.5C291 226 320 235 349 240C378 245 407 246 436.2 244.5C465.3 243 494.7 239 523.8 236C553 233 582 231 611 229.5C640 228 669 227 698 224.5C727 222 756 218 785.2 217.5C814.3 217 843.7 220 872.8 220.5C902 221 931 219 945.5 218L960 217L960 167L945.5 169C931 171 902 175 872.8 172C843.7 169 814.3 159 785.2 155C756 151 727 153 698 161C669 169 640 183 611 188.5C582 194 553 191 523.8 189.5C494.7 188 465.3 188 436.2 193C407 198 378 208 349 208.5C320 209 291 200 262 190C233 180 204 169 174.8 167.5C145.7 166 116.3 174 87.2 182.5C58 191 29 200 14.5 204.5L0 209Z" fill="#00383c"></path><path d="M0 283L14.5 282C29 281 58 279 87.2 274C116.3 269 145.7 261 174.8 256C204 251 233 249 262 253C291 257 320 267 349 272C378 277 407 277 436.2 274.5C465.3 272 494.7 267 523.8 263.5C553 260 582 258 611 257C640 256 669 256 698 256.5C727 257 756 258 785.2 256.5C814.3 255 843.7 251 872.8 251C902 251 931 255 945.5 257L960 259L960 215L945.5 216C931 217 902 219 872.8 218.5C843.7 218 814.3 215 785.2 215.5C756 216 727 220 698 222.5C669 225 640 226 611 227.5C582 229 553 231 523.8 234C494.7 237 465.3 241 436.2 242.5C407 244 378 243 349 238C320 233 291 224 262 221.5C233 219 204 223 174.8 229.5C145.7 236 116.3 245 87.2 250C58 255 29 256 14.5 256.5L0 257Z" fill="#002226"></path><path d="M0 301L14.5 301C29 301 58 301 87.2 301C116.3 301 145.7 301 174.8 301C204 301 233 301 262 301C291 301 320 301 349 301C378 301 407 301 436.2 301C465.3 301 494.7 301 523.8 301C553 301 582 301 611 301C640 301 669 301 698 301C727 301 756 301 785.2 301C814.3 301 843.7 301 872.8 301C902 301 931 301 945.5 301L960 301L960 257L945.5 255C931 253 902 249 872.8 249C843.7 249 814.3 253 785.2 254.5C756 256 727 255 698 254.5C669 254 640 254 611 255C582 256 553 258 523.8 261.5C494.7 265 465.3 270 436.2 272.5C407 275 378 275 349 270C320 265 291 255 262 251C233 247 204 249 174.8 254C145.7 259 116.3 267 87.2 272C58 277 29 279 14.5 280L0 281Z" fill="#000000"></path></svg>