<svg id="visual" viewBox="0 0 960 300" width="960" height="300" xmlns="http://www.w3.org/2000/svg" xmlns:xlink="http://www.w3.org/1999/xlink" version="1.1"><rect x="0" y="0" width="960" height="300" fill="#000000"></rect><path d="M0 138L120 81L240 103L360 110L480 88L600 107L720 96L840 113L960 87L960 301L840 301L720 301L600 301L480 301L360 301L240 301L120 301L0 301Z" fill="#000000"></path><path d="M0 174L120 124L240 142L360 148L480 155L600 123L720 127L840 153L960 161L960 301L840 301L720 301L600 301L480 301L360 301L240 301L120 301L0 301Z" fill="#001114"></path><path d="M0 183L120 148L240 190L360 173L480 197L600 189L720 193L840 198L960 168L960 301L840 301L720 301L600 301L480 301L360 301L240 301L120 301L0 301Z" fill="#0a191c"></path><path d="M0 219L120 216L240 206L360 180L480 200L600 222L720 206L840 198L960 215L960 301L840 301L720 301L600 301L480 301L360 301L240 301L120 301L0 301Z" fill="#132124"></path><path d="M0 225L120 215L240 216L360 241L480 214L600 233L720 245L840 234L960 231L960 301L840 301L720 301L600 301L480 301L360 301L240 301L120 301L0 301Z" fill="#1b292c"></path><path d="M0 273L120 248L240 254L360 264L480 261L600 255L720 248L840 266L960 274L960 301L840 301L720 301L600 301L480 301L360 301L240 301L120 301L0 301Z" fill="#233134"></path></svg>