<svg id="visual" viewBox="0 0 960 300" width="960" height="300" xmlns="http://www.w3.org/2000/svg" xmlns:xlink="http://www.w3.org/1999/xlink" version="1.1"><rect x="0" y="0" width="960" height="300" fill="#233134"></rect><path d="M0 136L120 128L240 135L360 99L480 128L600 134L720 83L840 111L960 149L960 301L840 301L720 301L600 301L480 301L360 301L240 301L120 301L0 301Z" fill="#233134"></path><path d="M0 175L120 159L240 118L360 149L480 128L600 127L720 165L840 133L960 174L960 301L840 301L720 301L600 301L480 301L360 301L240 301L120 301L0 301Z" fill="#1b2b30"></path><path d="M0 147L120 170L240 191L360 188L480 166L600 173L720 199L840 157L960 154L960 301L840 301L720 301L600 301L480 301L360 301L240 301L120 301L0 301Z" fill="#14252c"></path><path d="M0 206L120 207L240 222L360 223L480 218L600 188L720 187L840 206L960 223L960 301L840 301L720 301L600 301L480 301L360 301L240 301L120 301L0 301Z" fill="#0d1f28"></path><path d="M0 241L120 218L240 230L360 239L480 246L600 251L720 245L840 236L960 228L960 301L840 301L720 301L600 301L480 301L360 301L240 301L120 301L0 301Z" fill="#061924"></path><path d="M0 251L120 272L240 272L360 274L480 255L600 275L720 272L840 276L960 257L960 301L840 301L720 301L600 301L480 301L360 301L240 301L120 301L0 301Z" fill="#001220"></path></svg>