<svg id="visual" viewBox="0 0 960 300" width="960" height="300" xmlns="http://www.w3.org/2000/svg" xmlns:xlink="http://www.w3.org/1999/xlink" version="1.1"><rect x="0" y="0" width="960" height="300" fill="#488286"></rect><path d="M0 123L120 128L240 95L360 145L480 91L600 150L720 87L840 133L960 125L960 301L840 301L720 301L600 301L480 301L360 301L240 301L120 301L0 301Z" fill="#488286"></path><path d="M0 161L120 165L240 138L360 127L480 169L600 120L720 169L840 139L960 121L960 301L840 301L720 301L600 301L480 301L360 301L240 301L120 301L0 301Z" fill="#2e686c"></path><path d="M0 189L120 193L240 193L360 183L480 158L600 160L720 171L840 200L960 178L960 301L840 301L720 301L600 301L480 301L360 301L240 301L120 301L0 301Z" fill="#125054"></path><path d="M0 222L120 219L240 193L360 186L480 201L600 195L720 185L840 198L960 205L960 301L840 301L720 301L600 301L480 301L360 301L240 301L120 301L0 301Z" fill="#00383c"></path><path d="M0 240L120 225L240 233L360 225L480 229L600 247L720 250L840 234L960 248L960 301L840 301L720 301L600 301L480 301L360 301L240 301L120 301L0 301Z" fill="#002226"></path><path d="M0 265L120 247L240 266L360 270L480 245L600 259L720 274L840 264L960 253L960 301L840 301L720 301L600 301L480 301L360 301L240 301L120 301L0 301Z" fill="#000000"></path></svg>