<svg id="visual" viewBox="0 0 960 300" width="960" height="300" xmlns="http://www.w3.org/2000/svg" xmlns:xlink="http://www.w3.org/1999/xlink" version="1.1"><rect x="0" y="0" width="960" height="300" fill="#d81836"></rect><path d="M0 98L26.7 101.2C53.3 104.3 106.7 110.7 160 109.2C213.3 107.7 266.7 98.3 320 98.7C373.3 99 426.7 109 480 116C533.3 123 586.7 127 640 126.8C693.3 126.7 746.7 122.3 800 123.3C853.3 124.3 906.7 130.7 933.3 133.8L960 137L960 301L933.3 301C906.7 301 853.3 301 800 301C746.7 301 693.3 301 640 301C586.7 301 533.3 301 480 301C426.7 301 373.3 301 320 301C266.7 301 213.3 301 160 301C106.7 301 53.3 301 26.7 301L0 301Z" fill="#77878b"></path><path d="M0 133L26.7 136.7C53.3 140.3 106.7 147.7 160 150C213.3 152.3 266.7 149.7 320 145.8C373.3 142 426.7 137 480 140.8C533.3 144.7 586.7 157.3 640 157.2C693.3 157 746.7 144 800 142.3C853.3 140.7 906.7 150.3 933.3 155.2L960 160L960 301L933.3 301C906.7 301 853.3 301 800 301C746.7 301 693.3 301 640 301C586.7 301 533.3 301 480 301C426.7 301 373.3 301 320 301C266.7 301 213.3 301 160 301C106.7 301 53.3 301 26.7 301L0 301Z" fill="#59696d"></path><path d="M0 225L26.7 219.8C53.3 214.7 106.7 204.3 160 197.7C213.3 191 266.7 188 320 186.2C373.3 184.3 426.7 183.7 480 192.2C533.3 200.7 586.7 218.3 640 220.8C693.3 223.3 746.7 210.7 800 210C853.3 209.3 906.7 220.7 933.3 226.3L960 232L960 301L933.3 301C906.7 301 853.3 301 800 301C746.7 301 693.3 301 640 301C586.7 301 533.3 301 480 301C426.7 301 373.3 301 320 301C266.7 301 213.3 301 160 301C106.7 301 53.3 301 26.7 301L0 301Z" fill="#3d4c50"></path><path d="M0 265L26.7 259.7C53.3 254.3 106.7 243.7 160 239.2C213.3 234.7 266.7 236.3 320 236.8C373.3 237.3 426.7 236.7 480 239.2C533.3 241.7 586.7 247.3 640 246.7C693.3 246 746.7 239 800 237C853.3 235 906.7 238 933.3 239.5L960 241L960 301L933.3 301C906.7 301 853.3 301 800 301C746.7 301 693.3 301 640 301C586.7 301 533.3 301 480 301C426.7 301 373.3 301 320 301C266.7 301 213.3 301 160 301C106.7 301 53.3 301 26.7 301L0 301Z" fill="#233134"></path></svg>