<svg id="visual" viewBox="0 0 960 300" width="960" height="300" xmlns="http://www.w3.org/2000/svg" xmlns:xlink="http://www.w3.org/1999/xlink" version="1.1"><path d="M0 58L53.3 69C106.7 80 213.3 102 320 107C426.7 112 533.3 100 640 94C746.7 88 853.3 88 906.7 88L960 88L960 0L906.7 0C853.3 0 746.7 0 640 0C533.3 0 426.7 0 320 0C213.3 0 106.7 0 53.3 0L0 0Z" fill="#001220"></path><path d="M0 145L53.3 156C106.7 167 213.3 189 320 192.5C426.7 196 533.3 181 640 178.5C746.7 176 853.3 186 906.7 191L960 196L960 86L906.7 86C853.3 86 746.7 86 640 92C533.3 98 426.7 110 320 105C213.3 100 106.7 78 53.3 67L0 56Z" fill="#382857"></path><path d="M0 220L53.3 223.5C106.7 227 213.3 234 320 233.5C426.7 233 533.3 225 640 222.5C746.7 220 853.3 223 906.7 224.5L960 226L960 194L906.7 189C853.3 184 746.7 174 640 176.5C533.3 179 426.7 194 320 190.5C213.3 187 106.7 165 53.3 154L0 143Z" fill="#992261"></path><path d="M0 301L53.3 301C106.7 301 213.3 301 320 301C426.7 301 533.3 301 640 301C746.7 301 853.3 301 906.7 301L960 301L960 224L906.7 222.5C853.3 221 746.7 218 640 220.5C533.3 223 426.7 231 320 231.5C213.3 232 106.7 225 53.3 221.5L0 218Z" fill="#dd3f31"></path></svg>