<svg id="visual" viewBox="0 0 960 300" width="960" height="300" xmlns="http://www.w3.org/2000/svg" xmlns:xlink="http://www.w3.org/1999/xlink" version="1.1"><path d="M0 88L16 96.5C32 105 64 122 96 126C128 130 160 121 192 107.5C224 94 256 76 288 72.5C320 69 352 80 384 81C416 82 448 73 480 67.5C512 62 544 60 576 62.5C608 65 640 72 672 74C704 76 736 73 768 74.5C800 76 832 82 864 87.5C896 93 928 98 944 100.5L960 103L960 0L944 0C928 0 896 0 864 0C832 0 800 0 768 0C736 0 704 0 672 0C640 0 608 0 576 0C544 0 512 0 480 0C448 0 416 0 384 0C352 0 320 0 288 0C256 0 224 0 192 0C160 0 128 0 96 0C64 0 32 0 16 0L0 0Z" fill="#001220"></path><path d="M0 127L16 132C32 137 64 147 96 149C128 151 160 145 192 135.5C224 126 256 113 288 111.5C320 110 352 120 384 121.5C416 123 448 116 480 110.5C512 105 544 101 576 103.5C608 106 640 115 672 115C704 115 736 106 768 106C800 106 832 115 864 121.5C896 128 928 132 944 134L960 136L960 101L944 98.5C928 96 896 91 864 85.5C832 80 800 74 768 72.5C736 71 704 74 672 72C640 70 608 63 576 60.5C544 58 512 60 480 65.5C448 71 416 80 384 79C352 78 320 67 288 70.5C256 74 224 92 192 105.5C160 119 128 128 96 124C64 120 32 103 16 94.5L0 86Z" fill="#0f2c3a"></path><path d="M0 169L16 174.5C32 180 64 191 96 195C128 199 160 196 192 185C224 174 256 155 288 148.5C320 142 352 148 384 151.5C416 155 448 156 480 155.5C512 155 544 153 576 154.5C608 156 640 161 672 156C704 151 736 136 768 134C800 132 832 143 864 154C896 165 928 176 944 181.5L960 187L960 134L944 132C928 130 896 126 864 119.5C832 113 800 104 768 104C736 104 704 113 672 113C640 113 608 104 576 101.5C544 99 512 103 480 108.5C448 114 416 121 384 119.5C352 118 320 108 288 109.5C256 111 224 124 192 133.5C160 143 128 149 96 147C64 145 32 135 16 130L0 125Z" fill="#1f4754"></path><path d="M0 229L16 230C32 231 64 233 96 237C128 241 160 247 192 240C224 233 256 213 288 209.5C320 206 352 219 384 224C416 229 448 226 480 216.5C512 207 544 191 576 190.5C608 190 640 205 672 201C704 197 736 174 768 168C800 162 832 173 864 189C896 205 928 226 944 236.5L960 247L960 185L944 179.5C928 174 896 163 864 152C832 141 800 130 768 132C736 134 704 149 672 154C640 159 608 154 576 152.5C544 151 512 153 480 153.5C448 154 416 153 384 149.5C352 146 320 140 288 146.5C256 153 224 172 192 183C160 194 128 197 96 193C64 189 32 178 16 172.5L0 167Z" fill="#32646e"></path><path d="M0 301L16 301C32 301 64 301 96 301C128 301 160 301 192 301C224 301 256 301 288 301C320 301 352 301 384 301C416 301 448 301 480 301C512 301 544 301 576 301C608 301 640 301 672 301C704 301 736 301 768 301C800 301 832 301 864 301C896 301 928 301 944 301L960 301L960 245L944 234.5C928 224 896 203 864 187C832 171 800 160 768 166C736 172 704 195 672 199C640 203 608 188 576 188.5C544 189 512 205 480 214.5C448 224 416 227 384 222C352 217 320 204 288 207.5C256 211 224 231 192 238C160 245 128 239 96 235C64 231 32 229 16 228L0 227Z" fill="#488286"></path></svg>