<svg id="visual" viewBox="0 0 960 300" width="960" height="300" xmlns="http://www.w3.org/2000/svg" xmlns:xlink="http://www.w3.org/1999/xlink" version="1.1"><path d="M0 49L14.5 55C29 61 58 73 87.2 78C116.3 83 145.7 81 174.8 74C204 67 233 55 262 46C291 37 320 31 349 34.5C378 38 407 51 436.2 53C465.3 55 494.7 46 523.8 45C553 44 582 51 611 53C640 55 669 52 698 51C727 50 756 51 785.2 52C814.3 53 843.7 54 872.8 59C902 64 931 73 945.5 77.5L960 82L960 0L945.5 0C931 0 902 0 872.8 0C843.7 0 814.3 0 785.2 0C756 0 727 0 698 0C669 0 640 0 611 0C582 0 553 0 523.8 0C494.7 0 465.3 0 436.2 0C407 0 378 0 349 0C320 0 291 0 262 0C233 0 204 0 174.8 0C145.7 0 116.3 0 87.2 0C58 0 29 0 14.5 0L0 0Z" fill="#030012"></path><path d="M0 130L14.5 133C29 136 58 142 87.2 140C116.3 138 145.7 128 174.8 123.5C204 119 233 120 262 116C291 112 320 103 349 116C378 129 407 164 436.2 182.5C465.3 201 494.7 203 523.8 190C553 177 582 149 611 142.5C640 136 669 151 698 157.5C727 164 756 162 785.2 152.5C814.3 143 843.7 126 872.8 120C902 114 931 119 945.5 121.5L960 124L960 80L945.5 75.5C931 71 902 62 872.8 57C843.7 52 814.3 51 785.2 50C756 49 727 48 698 49C669 50 640 53 611 51C582 49 553 42 523.8 43C494.7 44 465.3 53 436.2 51C407 49 378 36 349 32.5C320 29 291 35 262 44C233 53 204 65 174.8 72C145.7 79 116.3 81 87.2 76C58 71 29 59 14.5 53L0 47Z" fill="#030516"></path><path d="M0 154L14.5 161C29 168 58 182 87.2 181C116.3 180 145.7 164 174.8 156.5C204 149 233 150 262 146.5C291 143 320 135 349 150C378 165 407 203 436.2 222.5C465.3 242 494.7 243 523.8 234C553 225 582 206 611 202.5C640 199 669 211 698 215.5C727 220 756 217 785.2 207.5C814.3 198 843.7 182 872.8 170C902 158 931 150 945.5 146L960 142L960 122L945.5 119.5C931 117 902 112 872.8 118C843.7 124 814.3 141 785.2 150.5C756 160 727 162 698 155.5C669 149 640 134 611 140.5C582 147 553 175 523.8 188C494.7 201 465.3 199 436.2 180.5C407 162 378 127 349 114C320 101 291 110 262 114C233 118 204 117 174.8 121.5C145.7 126 116.3 136 87.2 138C58 140 29 134 14.5 131L0 128Z" fill="#030a1a"></path><path d="M0 184L14.5 187.5C29 191 58 198 87.2 199.5C116.3 201 145.7 197 174.8 193.5C204 190 233 187 262 178C291 169 320 154 349 168.5C378 183 407 227 436.2 246C465.3 265 494.7 259 523.8 253C553 247 582 241 611 239.5C640 238 669 241 698 240C727 239 756 234 785.2 229.5C814.3 225 843.7 221 872.8 214.5C902 208 931 199 945.5 194.5L960 190L960 140L945.5 144C931 148 902 156 872.8 168C843.7 180 814.3 196 785.2 205.5C756 215 727 218 698 213.5C669 209 640 197 611 200.5C582 204 553 223 523.8 232C494.7 241 465.3 240 436.2 220.5C407 201 378 163 349 148C320 133 291 141 262 144.5C233 148 204 147 174.8 154.5C145.7 162 116.3 178 87.2 179C58 180 29 166 14.5 159L0 152Z" fill="#020e1d"></path><path d="M0 301L14.5 301C29 301 58 301 87.2 301C116.3 301 145.7 301 174.8 301C204 301 233 301 262 301C291 301 320 301 349 301C378 301 407 301 436.2 301C465.3 301 494.7 301 523.8 301C553 301 582 301 611 301C640 301 669 301 698 301C727 301 756 301 785.2 301C814.3 301 843.7 301 872.8 301C902 301 931 301 945.5 301L960 301L960 188L945.5 192.5C931 197 902 206 872.8 212.5C843.7 219 814.3 223 785.2 227.5C756 232 727 237 698 238C669 239 640 236 611 237.5C582 239 553 245 523.8 251C494.7 257 465.3 263 436.2 244C407 225 378 181 349 166.5C320 152 291 167 262 176C233 185 204 188 174.8 191.5C145.7 195 116.3 199 87.2 197.5C58 196 29 189 14.5 185.5L0 182Z" fill="#001220"></path></svg>