<svg id="visual" viewBox="0 0 960 300" width="960" height="300" xmlns="http://www.w3.org/2000/svg" xmlns:xlink="http://www.w3.org/1999/xlink" version="1.1"><rect x="0" y="0" width="960" height="300" fill="#488286"></rect><path d="M0 141L22.8 146.5C45.7 152 91.3 163 137 156.3C182.7 149.7 228.3 125.3 274 119.2C319.7 113 365.3 125 411.2 136.8C457 148.7 503 160.3 548.8 155.5C594.7 150.7 640.3 129.3 686 123.3C731.7 117.3 777.3 126.7 823 135C868.7 143.3 914.3 150.7 937.2 154.3L960 158L960 301L937.2 301C914.3 301 868.7 301 823 301C777.3 301 731.7 301 686 301C640.3 301 594.7 301 548.8 301C503 301 457 301 411.2 301C365.3 301 319.7 301 274 301C228.3 301 182.7 301 137 301C91.3 301 45.7 301 22.8 301L0 301Z" fill="#fa7268"></path><path d="M0 188L22.8 183.7C45.7 179.3 91.3 170.7 137 174.2C182.7 177.7 228.3 193.3 274 194.3C319.7 195.3 365.3 181.7 411.2 180.8C457 180 503 192 548.8 188.7C594.7 185.3 640.3 166.7 686 157.3C731.7 148 777.3 148 823 154.7C868.7 161.3 914.3 174.7 937.2 181.3L960 188L960 301L937.2 301C914.3 301 868.7 301 823 301C777.3 301 731.7 301 686 301C640.3 301 594.7 301 548.8 301C503 301 457 301 411.2 301C365.3 301 319.7 301 274 301C228.3 301 182.7 301 137 301C91.3 301 45.7 301 22.8 301L0 301Z" fill="#ef5a56"></path><path d="M0 217L22.8 219.3C45.7 221.7 91.3 226.3 137 229.7C182.7 233 228.3 235 274 232.3C319.7 229.7 365.3 222.3 411.2 216.5C457 210.7 503 206.3 548.8 209.5C594.7 212.7 640.3 223.3 686 222.2C731.7 221 777.3 208 823 208.8C868.7 209.7 914.3 224.3 937.2 231.7L960 239L960 301L937.2 301C914.3 301 868.7 301 823 301C777.3 301 731.7 301 686 301C640.3 301 594.7 301 548.8 301C503 301 457 301 411.2 301C365.3 301 319.7 301 274 301C228.3 301 182.7 301 137 301C91.3 301 45.7 301 22.8 301L0 301Z" fill="#e43f46"></path><path d="M0 237L22.8 235.8C45.7 234.7 91.3 232.3 137 234C182.7 235.7 228.3 241.3 274 243C319.7 244.7 365.3 242.3 411.2 242.7C457 243 503 246 548.8 250.7C594.7 255.3 640.3 261.7 686 259.7C731.7 257.7 777.3 247.3 823 244C868.7 240.7 914.3 244.3 937.2 246.2L960 248L960 301L937.2 301C914.3 301 868.7 301 823 301C777.3 301 731.7 301 686 301C640.3 301 594.7 301 548.8 301C503 301 457 301 411.2 301C365.3 301 319.7 301 274 301C228.3 301 182.7 301 137 301C91.3 301 45.7 301 22.8 301L0 301Z" fill="#d81836"></path></svg>