<svg id="visual" viewBox="0 0 960 300" width="960" height="300" xmlns="http://www.w3.org/2000/svg" xmlns:xlink="http://www.w3.org/1999/xlink" version="1.1"><rect x="0" y="0" width="960" height="300" fill="#001220"></rect><path d="M0 194L22.8 196.5C45.7 199 91.3 204 137 206.2C182.7 208.3 228.3 207.7 274 205C319.7 202.3 365.3 197.7 411.2 195C457 192.3 503 191.7 548.8 196.3C594.7 201 640.3 211 686 210.3C731.7 209.7 777.3 198.3 823 192.5C868.7 186.7 914.3 186.3 937.2 186.2L960 186L960 301L937.2 301C914.3 301 868.7 301 823 301C777.3 301 731.7 301 686 301C640.3 301 594.7 301 548.8 301C503 301 457 301 411.2 301C365.3 301 319.7 301 274 301C228.3 301 182.7 301 137 301C91.3 301 45.7 301 22.8 301L0 301Z" fill="#fa7268"></path><path d="M0 218L22.8 218.8C45.7 219.7 91.3 221.3 137 219C182.7 216.7 228.3 210.3 274 212.8C319.7 215.3 365.3 226.7 411.2 226C457 225.3 503 212.7 548.8 211.7C594.7 210.7 640.3 221.3 686 224C731.7 226.7 777.3 221.3 823 220.7C868.7 220 914.3 224 937.2 226L960 228L960 301L937.2 301C914.3 301 868.7 301 823 301C777.3 301 731.7 301 686 301C640.3 301 594.7 301 548.8 301C503 301 457 301 411.2 301C365.3 301 319.7 301 274 301C228.3 301 182.7 301 137 301C91.3 301 45.7 301 22.8 301L0 301Z" fill="#f3665b"></path><path d="M0 218L22.8 221C45.7 224 91.3 230 137 235.3C182.7 240.7 228.3 245.3 274 243.3C319.7 241.3 365.3 232.7 411.2 227.3C457 222 503 220 548.8 223C594.7 226 640.3 234 686 239.5C731.7 245 777.3 248 823 245C868.7 242 914.3 233 937.2 228.5L960 224L960 301L937.2 301C914.3 301 868.7 301 823 301C777.3 301 731.7 301 686 301C640.3 301 594.7 301 548.8 301C503 301 457 301 411.2 301C365.3 301 319.7 301 274 301C228.3 301 182.7 301 137 301C91.3 301 45.7 301 22.8 301L0 301Z" fill="#ec594d"></path><path d="M0 254L22.8 253.7C45.7 253.3 91.3 252.7 137 251.7C182.7 250.7 228.3 249.3 274 250.5C319.7 251.7 365.3 255.3 411.2 259C457 262.7 503 266.3 548.8 265.7C594.7 265 640.3 260 686 255.5C731.7 251 777.3 247 823 244.7C868.7 242.3 914.3 241.7 937.2 241.3L960 241L960 301L937.2 301C914.3 301 868.7 301 823 301C777.3 301 731.7 301 686 301C640.3 301 594.7 301 548.8 301C503 301 457 301 411.2 301C365.3 301 319.7 301 274 301C228.3 301 182.7 301 137 301C91.3 301 45.7 301 22.8 301L0 301Z" fill="#e54c3f"></path><path d="M0 285L22.8 282.7C45.7 280.3 91.3 275.7 137 273.3C182.7 271 228.3 271 274 272.3C319.7 273.7 365.3 276.3 411.2 276.3C457 276.3 503 273.7 548.8 273.8C594.7 274 640.3 277 686 279.3C731.7 281.7 777.3 283.3 823 282.8C868.7 282.3 914.3 279.7 937.2 278.3L960 277L960 301L937.2 301C914.3 301 868.7 301 823 301C777.3 301 731.7 301 686 301C640.3 301 594.7 301 548.8 301C503 301 457 301 411.2 301C365.3 301 319.7 301 274 301C228.3 301 182.7 301 137 301C91.3 301 45.7 301 22.8 301L0 301Z" fill="#dd3f31"></path></svg>