<svg id="visual" viewBox="0 0 960 300" width="960" height="300" xmlns="http://www.w3.org/2000/svg" xmlns:xlink="http://www.w3.org/1999/xlink" version="1.1"><path d="M0 61L17.8 58C35.7 55 71.3 49 106.8 55.5C142.3 62 177.7 81 213.2 84C248.7 87 284.3 74 320 66.5C355.7 59 391.3 57 426.8 63C462.3 69 497.7 83 533.2 80C568.7 77 604.3 57 640 63.5C675.7 70 711.3 103 746.8 104.5C782.3 106 817.7 76 853.2 72.5C888.7 69 924.3 92 942.2 103.5L960 115L960 0L942.2 0C924.3 0 888.7 0 853.2 0C817.7 0 782.3 0 746.8 0C711.3 0 675.7 0 640 0C604.3 0 568.7 0 533.2 0C497.7 0 462.3 0 426.8 0C391.3 0 355.7 0 320 0C284.3 0 248.7 0 213.2 0C177.7 0 142.3 0 106.8 0C71.3 0 35.7 0 17.8 0L0 0Z" fill="#030012"></path><path d="M0 73L17.8 74.5C35.7 76 71.3 79 106.8 91C142.3 103 177.7 124 213.2 126.5C248.7 129 284.3 113 320 104C355.7 95 391.3 93 426.8 99.5C462.3 106 497.7 121 533.2 117.5C568.7 114 604.3 92 640 98.5C675.7 105 711.3 140 746.8 139C782.3 138 817.7 101 853.2 97.5C888.7 94 924.3 124 942.2 139L960 154L960 113L942.2 101.5C924.3 90 888.7 67 853.2 70.5C817.7 74 782.3 104 746.8 102.5C711.3 101 675.7 68 640 61.5C604.3 55 568.7 75 533.2 78C497.7 81 462.3 67 426.8 61C391.3 55 355.7 57 320 64.5C284.3 72 248.7 85 213.2 82C177.7 79 142.3 60 106.8 53.5C71.3 47 35.7 53 17.8 56L0 59Z" fill="#1d1c25"></path><path d="M0 172L17.8 175.5C35.7 179 71.3 186 106.8 193C142.3 200 177.7 207 213.2 209C248.7 211 284.3 208 320 198C355.7 188 391.3 171 426.8 173.5C462.3 176 497.7 198 533.2 203.5C568.7 209 604.3 198 640 196C675.7 194 711.3 201 746.8 201.5C782.3 202 817.7 196 853.2 198.5C888.7 201 924.3 212 942.2 217.5L960 223L960 152L942.2 137C924.3 122 888.7 92 853.2 95.5C817.7 99 782.3 136 746.8 137C711.3 138 675.7 103 640 96.5C604.3 90 568.7 112 533.2 115.5C497.7 119 462.3 104 426.8 97.5C391.3 91 355.7 93 320 102C284.3 111 248.7 127 213.2 124.5C177.7 122 142.3 101 106.8 89C71.3 77 35.7 74 17.8 72.5L0 71Z" fill="#333239"></path><path d="M0 214L17.8 219C35.7 224 71.3 234 106.8 238C142.3 242 177.7 240 213.2 240.5C248.7 241 284.3 244 320 240C355.7 236 391.3 225 426.8 224C462.3 223 497.7 232 533.2 237C568.7 242 604.3 243 640 241C675.7 239 711.3 234 746.8 235C782.3 236 817.7 243 853.2 245.5C888.7 248 924.3 246 942.2 245L960 244L960 221L942.2 215.5C924.3 210 888.7 199 853.2 196.5C817.7 194 782.3 200 746.8 199.5C711.3 199 675.7 192 640 194C604.3 196 568.7 207 533.2 201.5C497.7 196 462.3 174 426.8 171.5C391.3 169 355.7 186 320 196C284.3 206 248.7 209 213.2 207C177.7 205 142.3 198 106.8 191C71.3 184 35.7 177 17.8 173.5L0 170Z" fill="#4a4a4f"></path><path d="M0 238L17.8 241.5C35.7 245 71.3 252 106.8 255.5C142.3 259 177.7 259 213.2 263.5C248.7 268 284.3 277 320 277C355.7 277 391.3 268 426.8 267.5C462.3 267 497.7 275 533.2 276C568.7 277 604.3 271 640 264C675.7 257 711.3 249 746.8 250.5C782.3 252 817.7 263 853.2 271C888.7 279 924.3 284 942.2 286.5L960 289L960 242L942.2 243C924.3 244 888.7 246 853.2 243.5C817.7 241 782.3 234 746.8 233C711.3 232 675.7 237 640 239C604.3 241 568.7 240 533.2 235C497.7 230 462.3 221 426.8 222C391.3 223 355.7 234 320 238C284.3 242 248.7 239 213.2 238.5C177.7 238 142.3 240 106.8 236C71.3 232 35.7 222 17.8 217L0 212Z" fill="#626265"></path><path d="M0 301L17.8 301C35.7 301 71.3 301 106.8 301C142.3 301 177.7 301 213.2 301C248.7 301 284.3 301 320 301C355.7 301 391.3 301 426.8 301C462.3 301 497.7 301 533.2 301C568.7 301 604.3 301 640 301C675.7 301 711.3 301 746.8 301C782.3 301 817.7 301 853.2 301C888.7 301 924.3 301 942.2 301L960 301L960 287L942.2 284.5C924.3 282 888.7 277 853.2 269C817.7 261 782.3 250 746.8 248.5C711.3 247 675.7 255 640 262C604.3 269 568.7 275 533.2 274C497.7 273 462.3 265 426.8 265.5C391.3 266 355.7 275 320 275C284.3 275 248.7 266 213.2 261.5C177.7 257 142.3 257 106.8 253.5C71.3 250 35.7 243 17.8 239.5L0 236Z" fill="#7c7c7c"></path></svg>