<svg id="visual" viewBox="0 0 960 300" width="960" height="300" xmlns="http://www.w3.org/2000/svg" xmlns:xlink="http://www.w3.org/1999/xlink" version="1.1"><path d="M0 25L14.5 24C29 23 58 21 87.2 24C116.3 27 145.7 35 174.8 36C204 37 233 31 262 30.5C291 30 320 35 349 36C378 37 407 34 436.2 31C465.3 28 494.7 25 523.8 27.5C553 30 582 38 611 37.5C640 37 669 28 698 25.5C727 23 756 27 785.2 32C814.3 37 843.7 43 872.8 46C902 49 931 49 945.5 49L960 49L960 0L945.5 0C931 0 902 0 872.8 0C843.7 0 814.3 0 785.2 0C756 0 727 0 698 0C669 0 640 0 611 0C582 0 553 0 523.8 0C494.7 0 465.3 0 436.2 0C407 0 378 0 349 0C320 0 291 0 262 0C233 0 204 0 174.8 0C145.7 0 116.3 0 87.2 0C58 0 29 0 14.5 0L0 0Z" fill="#233134"></path><path d="M0 55L14.5 53C29 51 58 47 87.2 52C116.3 57 145.7 71 174.8 75C204 79 233 73 262 72.5C291 72 320 77 349 76.5C378 76 407 70 436.2 68.5C465.3 67 494.7 70 523.8 70.5C553 71 582 69 611 65C640 61 669 55 698 55.5C727 56 756 63 785.2 66C814.3 69 843.7 68 872.8 69C902 70 931 73 945.5 74.5L960 76L960 47L945.5 47C931 47 902 47 872.8 44C843.7 41 814.3 35 785.2 30C756 25 727 21 698 23.5C669 26 640 35 611 35.5C582 36 553 28 523.8 25.5C494.7 23 465.3 26 436.2 29C407 32 378 35 349 34C320 33 291 28 262 28.5C233 29 204 35 174.8 34C145.7 33 116.3 25 87.2 22C58 19 29 21 14.5 22L0 23Z" fill="#1b2b30"></path><path d="M0 163L14.5 151C29 139 58 115 87.2 119C116.3 123 145.7 155 174.8 163.5C204 172 233 157 262 154.5C291 152 320 162 349 164.5C378 167 407 162 436.2 152C465.3 142 494.7 127 523.8 123.5C553 120 582 128 611 135C640 142 669 148 698 152C727 156 756 158 785.2 160.5C814.3 163 843.7 166 872.8 164.5C902 163 931 157 945.5 154L960 151L960 74L945.5 72.5C931 71 902 68 872.8 67C843.7 66 814.3 67 785.2 64C756 61 727 54 698 53.5C669 53 640 59 611 63C582 67 553 69 523.8 68.5C494.7 68 465.3 65 436.2 66.5C407 68 378 74 349 74.5C320 75 291 70 262 70.5C233 71 204 77 174.8 73C145.7 69 116.3 55 87.2 50C58 45 29 49 14.5 51L0 53Z" fill="#14252c"></path><path d="M0 217L14.5 212C29 207 58 197 87.2 198C116.3 199 145.7 211 174.8 218.5C204 226 233 229 262 227.5C291 226 320 220 349 221C378 222 407 230 436.2 230.5C465.3 231 494.7 224 523.8 223.5C553 223 582 229 611 228C640 227 669 219 698 216C727 213 756 215 785.2 217.5C814.3 220 843.7 223 872.8 229.5C902 236 931 246 945.5 251L960 256L960 149L945.5 152C931 155 902 161 872.8 162.5C843.7 164 814.3 161 785.2 158.5C756 156 727 154 698 150C669 146 640 140 611 133C582 126 553 118 523.8 121.5C494.7 125 465.3 140 436.2 150C407 160 378 165 349 162.5C320 160 291 150 262 152.5C233 155 204 170 174.8 161.5C145.7 153 116.3 121 87.2 117C58 113 29 137 14.5 149L0 161Z" fill="#0d1f28"></path><path d="M0 253L14.5 248.5C29 244 58 235 87.2 234C116.3 233 145.7 240 174.8 244C204 248 233 249 262 250.5C291 252 320 254 349 257.5C378 261 407 266 436.2 263C465.3 260 494.7 249 523.8 249.5C553 250 582 262 611 263C640 264 669 254 698 251C727 248 756 252 785.2 253.5C814.3 255 843.7 254 872.8 256.5C902 259 931 265 945.5 268L960 271L960 254L945.5 249C931 244 902 234 872.8 227.5C843.7 221 814.3 218 785.2 215.5C756 213 727 211 698 214C669 217 640 225 611 226C582 227 553 221 523.8 221.5C494.7 222 465.3 229 436.2 228.5C407 228 378 220 349 219C320 218 291 224 262 225.5C233 227 204 224 174.8 216.5C145.7 209 116.3 197 87.2 196C58 195 29 205 14.5 210L0 215Z" fill="#061924"></path><path d="M0 301L14.5 301C29 301 58 301 87.2 301C116.3 301 145.7 301 174.8 301C204 301 233 301 262 301C291 301 320 301 349 301C378 301 407 301 436.2 301C465.3 301 494.7 301 523.8 301C553 301 582 301 611 301C640 301 669 301 698 301C727 301 756 301 785.2 301C814.3 301 843.7 301 872.8 301C902 301 931 301 945.5 301L960 301L960 269L945.5 266C931 263 902 257 872.8 254.5C843.7 252 814.3 253 785.2 251.5C756 250 727 246 698 249C669 252 640 262 611 261C582 260 553 248 523.8 247.5C494.7 247 465.3 258 436.2 261C407 264 378 259 349 255.5C320 252 291 250 262 248.5C233 247 204 246 174.8 242C145.7 238 116.3 231 87.2 232C58 233 29 242 14.5 246.5L0 251Z" fill="#001220"></path></svg>