<svg id="visual" viewBox="0 0 960 300" width="960" height="300" xmlns="http://www.w3.org/2000/svg" xmlns:xlink="http://www.w3.org/1999/xlink" version="1.1"><path d="M0 58L14.5 66.5C29 75 58 92 87.2 97.5C116.3 103 145.7 97 174.8 95.5C204 94 233 97 262 88.5C291 80 320 60 349 62.5C378 65 407 90 436.2 99C465.3 108 494.7 101 523.8 94.5C553 88 582 82 611 75.5C640 69 669 62 698 62.5C727 63 756 71 785.2 76C814.3 81 843.7 83 872.8 77C902 71 931 57 945.5 50L960 43L960 0L945.5 0C931 0 902 0 872.8 0C843.7 0 814.3 0 785.2 0C756 0 727 0 698 0C669 0 640 0 611 0C582 0 553 0 523.8 0C494.7 0 465.3 0 436.2 0C407 0 378 0 349 0C320 0 291 0 262 0C233 0 204 0 174.8 0C145.7 0 116.3 0 87.2 0C58 0 29 0 14.5 0L0 0Z" fill="#001220"></path><path d="M0 121L14.5 127C29 133 58 145 87.2 145.5C116.3 146 145.7 135 174.8 131.5C204 128 233 132 262 128C291 124 320 112 349 112.5C378 113 407 126 436.2 135C465.3 144 494.7 149 523.8 143.5C553 138 582 122 611 111.5C640 101 669 96 698 99.5C727 103 756 115 785.2 119C814.3 123 843.7 119 872.8 116C902 113 931 111 945.5 110L960 109L960 41L945.5 48C931 55 902 69 872.8 75C843.7 81 814.3 79 785.2 74C756 69 727 61 698 60.5C669 60 640 67 611 73.5C582 80 553 86 523.8 92.5C494.7 99 465.3 106 436.2 97C407 88 378 63 349 60.5C320 58 291 78 262 86.5C233 95 204 92 174.8 93.5C145.7 95 116.3 101 87.2 95.5C58 90 29 73 14.5 64.5L0 56Z" fill="#0c2635"></path><path d="M0 187L14.5 189.5C29 192 58 197 87.2 198C116.3 199 145.7 196 174.8 194.5C204 193 233 193 262 193C291 193 320 193 349 194.5C378 196 407 199 436.2 204C465.3 209 494.7 216 523.8 214C553 212 582 201 611 199.5C640 198 669 206 698 207C727 208 756 202 785.2 205C814.3 208 843.7 220 872.8 223C902 226 931 220 945.5 217L960 214L960 107L945.5 108C931 109 902 111 872.8 114C843.7 117 814.3 121 785.2 117C756 113 727 101 698 97.5C669 94 640 99 611 109.5C582 120 553 136 523.8 141.5C494.7 147 465.3 142 436.2 133C407 124 378 111 349 110.5C320 110 291 122 262 126C233 130 204 126 174.8 129.5C145.7 133 116.3 144 87.2 143.5C58 143 29 131 14.5 125L0 119Z" fill="#183c4a"></path><path d="M0 208L14.5 210.5C29 213 58 218 87.2 221.5C116.3 225 145.7 227 174.8 225.5C204 224 233 219 262 218.5C291 218 320 222 349 224.5C378 227 407 228 436.2 234C465.3 240 494.7 251 523.8 251C553 251 582 240 611 237C640 234 669 239 698 239.5C727 240 756 236 785.2 237.5C814.3 239 843.7 246 872.8 249.5C902 253 931 253 945.5 253L960 253L960 212L945.5 215C931 218 902 224 872.8 221C843.7 218 814.3 206 785.2 203C756 200 727 206 698 205C669 204 640 196 611 197.5C582 199 553 210 523.8 212C494.7 214 465.3 207 436.2 202C407 197 378 194 349 192.5C320 191 291 191 262 191C233 191 204 191 174.8 192.5C145.7 194 116.3 197 87.2 196C58 195 29 190 14.5 187.5L0 185Z" fill="#26525e"></path><path d="M0 244L14.5 245C29 246 58 248 87.2 250.5C116.3 253 145.7 256 174.8 255.5C204 255 233 251 262 251C291 251 320 255 349 257C378 259 407 259 436.2 263C465.3 267 494.7 275 523.8 276.5C553 278 582 273 611 271C640 269 669 270 698 267C727 264 756 257 785.2 259C814.3 261 843.7 272 872.8 277C902 282 931 281 945.5 280.5L960 280L960 251L945.5 251C931 251 902 251 872.8 247.5C843.7 244 814.3 237 785.2 235.5C756 234 727 238 698 237.5C669 237 640 232 611 235C582 238 553 249 523.8 249C494.7 249 465.3 238 436.2 232C407 226 378 225 349 222.5C320 220 291 216 262 216.5C233 217 204 222 174.8 223.5C145.7 225 116.3 223 87.2 219.5C58 216 29 211 14.5 208.5L0 206Z" fill="#366a73"></path><path d="M0 301L14.5 301C29 301 58 301 87.2 301C116.3 301 145.7 301 174.8 301C204 301 233 301 262 301C291 301 320 301 349 301C378 301 407 301 436.2 301C465.3 301 494.7 301 523.8 301C553 301 582 301 611 301C640 301 669 301 698 301C727 301 756 301 785.2 301C814.3 301 843.7 301 872.8 301C902 301 931 301 945.5 301L960 301L960 278L945.5 278.5C931 279 902 280 872.8 275C843.7 270 814.3 259 785.2 257C756 255 727 262 698 265C669 268 640 267 611 269C582 271 553 276 523.8 274.5C494.7 273 465.3 265 436.2 261C407 257 378 257 349 255C320 253 291 249 262 249C233 249 204 253 174.8 253.5C145.7 254 116.3 251 87.2 248.5C58 246 29 244 14.5 243L0 242Z" fill="#488286"></path></svg>